<svg xmlns="http://www.w3.org/2000/svg" width="36.5" height="36.5" viewBox="0 0 36.5 36.5"><defs><style>.a{fill:#b5dcd5;}.b{fill:#fff;}</style></defs><g transform="translate(-413 -431)"><rect class="a" width="36.5" height="36.5" rx="3" transform="translate(413 431)"/><g transform="translate(420.733 438.921)"><path class="b" d="M205.278,0A5.028,5.028,0,0,0,201.7,1.483l-3.941,3.941a5.98,5.98,0,0,1,3.355.383l2.455-2.455a2.417,2.417,0,1,1,3.418,3.418l-4.419,4.419a2.476,2.476,0,0,1-3.418,0l-1.868,1.87a5.06,5.06,0,0,0,7.155,0l4.419-4.419A5.06,5.06,0,0,0,205.278,0Z" transform="translate(-189.19 0)"/><path class="b" d="M9.2,171.007,6.77,173.439a2.417,2.417,0,1,1-3.418-3.418L7.77,165.6a2.476,2.476,0,0,1,3.418,0l1.868-1.87a5.183,5.183,0,0,0-7.155,0l-4.419,4.419a5.06,5.06,0,1,0,7.156,7.156l3.889-3.889a6.4,6.4,0,0,1-.858.084A6.369,6.369,0,0,1,9.2,171.007Z" transform="translate(0 -155.641)"/></g></g></svg>