<svg xmlns="http://www.w3.org/2000/svg" width="36.5" height="36.5" viewBox="0 0 36.5 36.5"><defs><style>.a{fill:#b5dcd5;}.b{fill:#fff;}</style></defs><g transform="translate(-361 -431)"><path class="a" d="M3,0H33.5a3,3,0,0,1,3,3V33.5a3,3,0,0,1-3,3H3a3,3,0,0,1-3-3V3A3,3,0,0,1,3,0Z" transform="translate(361 431)"/><g transform="translate(368.733 440.543)"><g transform="translate(0 0)"><path class="b" d="M35.962,330.126a1.847,1.847,0,0,0,1.265-.477L31.1,323.526l-.424.3q-.687.506-1.116.79a6.864,6.864,0,0,1-1.14.579,3.473,3.473,0,0,1-1.327.3h-.024a3.471,3.471,0,0,1-1.327-.3,6.843,6.843,0,0,1-1.14-.579q-.428-.283-1.116-.79c-.128-.094-.269-.2-.423-.306l-6.124,6.125a1.847,1.847,0,0,0,1.265.477Z" transform="translate(-16.281 -313.147)"/><path class="b" d="M1.218,199.6A6.4,6.4,0,0,1,0,198.555v9.315l5.4-5.4Q3.777,201.343,1.218,199.6Z" transform="translate(0 -193.08)"/><path class="b" d="M417.5,199.6q-2.464,1.668-4.188,2.872l5.394,5.395v-9.316A6.652,6.652,0,0,1,417.5,199.6Z" transform="translate(-397.093 -193.08)"/><path class="b" d="M19.687,59.013H1.935a1.722,1.722,0,0,0-1.429.627,2.433,2.433,0,0,0-.5,1.568,2.818,2.818,0,0,0,.663,1.646A5.983,5.983,0,0,0,2.08,64.247q.41.29,2.472,1.719c.742.514,1.388.963,1.942,1.35.473.329.881.615,1.217.851l.18.128.333.24q.392.283.651.458t.627.392a3.659,3.659,0,0,0,.693.326,1.919,1.919,0,0,0,.6.109h.024a1.919,1.919,0,0,0,.6-.109,3.652,3.652,0,0,0,.693-.326q.368-.217.627-.392t.651-.458l.332-.239.18-.128,1.22-.848,4.424-3.071a5.736,5.736,0,0,0,1.471-1.483,3.19,3.19,0,0,0,.591-1.821,1.945,1.945,0,0,0-1.93-1.93Z" transform="translate(-0.006 -59.013)"/></g></g></g></svg>