<svg xmlns="http://www.w3.org/2000/svg" xmlns:xlink="http://www.w3.org/1999/xlink" width="36.05" height="36.05" viewBox="0 0 36.05 36.05"><defs><style>.a,.c{fill:#00aded;}.a{clip-rule:evenodd;}.b{clip-path:url(#a);}</style><clipPath id="a"><path class="a" d="M245.037-18h27.977a3.9,3.9,0,0,1,2.863,1.174,3.9,3.9,0,0,1,1.173,2.863V14.013a4.007,4.007,0,0,1-4.037,4.037H245.037A4.007,4.007,0,0,1,241,14.013V-13.963a3.9,3.9,0,0,1,1.173-2.863A3.9,3.9,0,0,1,245.037-18ZM270.479-5.326a11.283,11.283,0,0,0,1.455-1.314,6.429,6.429,0,0,0,1.08-1.5A7.813,7.813,0,0,1,270.2-7.3a6.193,6.193,0,0,0,2.253-3,10.028,10.028,0,0,1-3.473,1.314,5.078,5.078,0,0,0-6.243-1.08q-3.521,1.643-2.957,5.961A14.742,14.742,0,0,1,253.3-5.936a19.775,19.775,0,0,1-4.6-3.708,5.42,5.42,0,0,0-.423,4.131,4.834,4.834,0,0,0,2.018,3,5.014,5.014,0,0,1-2.253-.657A5.477,5.477,0,0,0,249.261.354a6.363,6.363,0,0,0,2.91,1.831,5.48,5.48,0,0,1-2.253.094q1.033,3.286,4.882,3.755a10.584,10.584,0,0,1-3.567,1.784,9.816,9.816,0,0,1-4.225.376,16.1,16.1,0,0,0,3.755,1.831,13.384,13.384,0,0,0,4.788.61A15.227,15.227,0,0,0,266.3,5.987Q270.291,1.715,270.479-5.326Z" transform="translate(-241 18)"/></clipPath></defs><g class="b"><path class="c" d="M236,33.078h56.078V-23H236Z" transform="translate(-246.014 12.986)"/></g></svg>