<svg xmlns="http://www.w3.org/2000/svg" xmlns:xlink="http://www.w3.org/1999/xlink" width="36.375" height="36.375" viewBox="0 0 36.375 36.375"><defs><style>.a,.c{fill:#5069a3;}.a{clip-rule:evenodd;}.b{clip-path:url(#a);}</style><clipPath id="a"><path class="a" d="M4.073-76H32.3a3.931,3.931,0,0,1,2.889,1.184,3.931,3.931,0,0,1,1.184,2.889V-43.7a3.931,3.931,0,0,1-1.184,2.889A3.931,3.931,0,0,1,32.3-39.625H4.073a3.931,3.931,0,0,1-2.889-1.184A3.931,3.931,0,0,1,0-43.7V-71.927a3.931,3.931,0,0,1,1.184-2.889A3.931,3.931,0,0,1,4.073-76Zm26.239,4.073h-5.02a6.723,6.723,0,0,0-5.02,2.037,7.2,7.2,0,0,0-2.084,4.973V-59.8H14.114v6.062h4.073v14.114H24.25V-53.739h6.062V-59.8H24.25v-4.073a1.928,1.928,0,0,1,.568-1.421,1.928,1.928,0,0,1,1.421-.568h4.073Z" transform="translate(0 76)"/></clipPath></defs><g class="b"><path class="c" d="M-5-24.417H51.583V-81H-5Z" transform="translate(-5.104 70.896)"/></g></svg>