<svg xmlns="http://www.w3.org/2000/svg" width="36.5" height="36.5" viewBox="0 0 36.5 36.5"><defs><style>.a{fill:#25d366;}</style></defs><g transform="translate(-216 -443)"><path class="a" d="M33.5,36.5H3a3,3,0,0,1-3-3V3A3,3,0,0,1,3,0H33.5a3,3,0,0,1,3,3V33.5A3,3,0,0,1,33.5,36.5Zm-21-9.372h0l.407.242A11.177,11.177,0,1,0,9.13,23.693l.266.422L8.267,28.238l4.23-1.109Zm9.6-2.917a4.232,4.232,0,0,1-1.3-.2,19.364,19.364,0,0,1-1.915-.707A14.542,14.542,0,0,1,13.2,18.32l-.06-.085,0-.006a6.416,6.416,0,0,1-1.367-3.469,3.7,3.7,0,0,1,1.113-2.733l.064-.068a1.242,1.242,0,0,1,.9-.42c.2,0,.44,0,.644.012h.1c.166,0,.417,0,.656.576.1.232.241.582.391.946.29.707.591,1.437.646,1.547a.626.626,0,0,1,.028.59,13.034,13.034,0,0,1-.84,1.148l-.049.059a.467.467,0,0,0-.1.626,10.047,10.047,0,0,0,1.869,2.326,8.741,8.741,0,0,0,2.48,1.567c.094.041.167.072.222.1a.834.834,0,0,0,.366.108.464.464,0,0,0,.361-.192c.245-.28.854-1,1.064-1.318a.464.464,0,0,1,.4-.254,1.107,1.107,0,0,1,.361.087c.309.112,1.964.926,2.3,1.093l.186.091a1.072,1.072,0,0,1,.458.3,2.8,2.8,0,0,1-.2,1.6,3.444,3.444,0,0,1-2.268,1.6A5.478,5.478,0,0,1,22.093,24.211Z" transform="translate(216 443)"/></g></svg>